<?xml version="1.0" encoding="UTF-8"?><svg id="Lager_2" xmlns="http://www.w3.org/2000/svg" viewBox="0 0 219.91 180.75"><defs><style>.cls-1{stroke-width:0px;}</style></defs><g id="Lager_2-2"><path class="cls-1" d="m125.76,180.75c-.37-.87-.85-1.72-1.08-2.63-.18-.72-.32-1.63-.05-2.27,2.5-5.92,5.09-11.79,7.65-17.68.66-1.53,2.24-1.29,3.38-1.85,1.13,1.47,1.37,2.84.57,4.59-2.43,5.33-4.7,10.74-6.98,16.14-.53,1.25-1.21,2.32-2.4,3.03-.25.15-.41.44-.61.67h-.48Z"/><path class="cls-1" d="m0,176.43c.31-.63.65-1.24.93-1.88,2.41-5.56,4.84-11.11,7.2-16.69.47-1.11,1.32-1.85,2.34-1.65.77.16,1.44,1.08,2,1.79.21.27.11.94-.05,1.33-2.72,6.38-5.44,12.77-8.28,19.1-.39.87-1.46,1.44-2.28,2.2C1.13,179.56.57,178.71,0,177.87c0-.48,0-.96,0-1.44Z"/><path class="cls-1" d="m83.76,180.75c-.21-.88-.54-1.76-.61-2.65-.08-.99-.2-2.11.16-2.99,2.12-5.16,4.44-10.24,6.56-15.41.75-1.84,1.93-2.95,3.82-3.39,1.21,1.48,1.56,2.96.67,4.9-2.5,5.47-4.78,11.05-7.2,16.57-.26.59-.76,1.1-1.25,1.55-.58.53-1.27.96-1.91,1.43h-.24Z"/><path class="cls-1" d="m127.34,110.91c-21.44,0-42.87.01-64.31,0-12.18-.01-20.76-5.69-25.83-16.68-1.17-2.54-2.84-4.41-5.25-5.83-5.98-3.53-10.08-8.58-11.53-15.48-1.56-7.41.41-14.04,5.02-19.88,1.95-2.46,2.64-4.98,2.26-8.1-1.55-12.8,7.26-23.85,20.09-25.38.99-.12,2-.06,2.99-.11,1.77-.09,3.21-.76,4.21-2.32,12.72-19.85,40.22-22.98,57.05-6.51.86.84,1.68,1.7,2.5,2.58.61.66,1.12.74,1.93.18,5.36-3.73,11.1-6.77,17.61-7.79,17.89-2.82,32.53,2.63,43.32,17.51.3.42.62.84.88,1.28,1.38,2.37,3.41,3.3,6.17,3.34,7.84.14,14.75,2.65,20.05,8.69,4.16,4.74,5.99,10.4,6.15,16.62.05,2.03-.15,4.07-.4,6.09-.29,2.34.33,4.32,1.88,6.07,3.44,3.88,6.11,8.21,7.22,13.34,1.5,6.93-.08,13.33-3.54,19.34-4.54,7.87-11.48,12-20.45,12.82-1.71.16-3.43.21-5.15.21-20.96.01-41.91,0-62.87,0Zm-.02-5v-.04c21.64,0,43.27.03,64.91-.02,6.41-.01,12.14-1.95,16.54-6.85,5.31-5.91,8.47-15.79,3.67-24.6-1.53-2.81-3.53-5.24-5.93-7.32-2.16-1.86-2.77-4.02-1.93-6.77.51-1.67.82-3.43.96-5.17.6-7.45-1.69-13.74-7.85-18.26-4.29-3.15-9.26-4.34-14.5-4-3.7.24-6.29-.82-8.22-4.19-3.65-6.39-8.63-11.58-15.24-15.04-6.79-3.55-14.01-4.43-21.53-3.57-13.66,1.57-23.68,8.33-29.53,20.9-1.09,2.34-1.86,4.84-2.81,7.25-.79,2.01-1.76,2.6-3.88,2.36-.55-.06-1.09-.24-1.64-.33-2.28-.41-4.54-1.01-6.83-1.17-6.89-.47-12.94,1.56-17.85,6.55-3.54,3.6-5.65,7.99-7,12.79-.59,2.07-1.87,3.27-4.03,3.56-2.14.28-4.28.55-6.4.92-10.71,1.83-18.19,10.33-18.36,20.82-.17,10.74,8.5,20.74,19.19,21.86,3.72.39,7.5.3,11.26.31,19,.03,38,.01,56.99.01Zm-92.88-22.32c.85-3.14,1.4-6.36,2.58-9.33,3.54-8.92,9.75-14.9,19.64-15.91,5.31-.54,8.51-3.01,10.23-8.03,2.34-6.81,7.51-11.09,13.83-14.02,6.1-2.83,12.53-2.94,19.02-1.65.96.19,1.32-.1,1.75-.85,3.03-5.35,6.11-10.68,9.17-16.01.17-.3.31-.62.47-.92-1.1-1.05-2.12-2.06-3.18-3.03-7.99-7.27-17.31-10.28-27.97-8.25-9.2,1.75-16.11,7.07-20.84,15.02-2.01,3.38-4.41,4.53-8.25,4.15-4.99-.5-9.51,1.1-13.13,4.66-4.92,4.85-6.13,10.77-4.48,17.33.75,2.99.34,5.53-2.09,7.59-.43.36-.81.78-1.19,1.18-8.91,9.44-5.6,22.36,4.44,28.09Z"/><path class="cls-1" d="m101.35,141.2c-1.66-.31-2.6-2.22-1.91-3.87,1.75-4.15,3.52-8.29,5.32-12.43.78-1.79,1.62-3.56,2.45-5.33.49-1.04,2.36-1.96,3.42-1.72.71.16,1.79,2.14,1.49,2.82-2.88,6.36-5.74,12.72-8.71,19.03-.32.67-1.35,1-2.06,1.49Z"/><path class="cls-1" d="m193.97,117.72c1.54,1.71,1.35,3.37.48,5.26-2.25,4.94-4.4,9.92-6.44,14.95-.77,1.91-2.05,3.16-3.83,4.23-.4-1.14-.87-2.23-1.14-3.37-.13-.57-.03-1.29.2-1.84,2.23-5.29,4.49-10.58,6.79-15.84,1.14-2.61,1.18-2.6,3.93-3.4Z"/><path class="cls-1" d="m59.01,140.91c-1.29-1.94-1.25-3.73-.33-5.74,2.29-5,4.42-10.07,6.55-15.15.65-1.55,1.92-1.94,3.32-2.12.92-.12,2.15,1.67,1.77,2.54-2.59,6-5.2,12-7.81,18-.67,1.55-2.27,1.75-3.51,2.48Z"/><path class="cls-1" d="m167.34,179.57c-1.02-1.85-1.22-3.55-.32-5.51,2.33-5.03,4.49-10.13,6.68-15.21.67-1.56,2.08-2.03,3.47-2.48.78-.25,2.03,1.73,1.66,2.6-2.14,5.02-4.3,10.04-6.46,15.05-.17.4-.37.8-.56,1.19q-1.4,2.96-4.48,4.36Z"/><path class="cls-1" d="m143.07,141.09c-1.32,0-2.34-1.99-1.74-3.44,1.87-4.49,3.76-8.97,5.67-13.45.73-1.72,1.52-3.43,2.3-5.13.48-1.03,2.26-1.63,3.31-1.15.83.37,1.48,2.29,1.08,3.18-2.8,6.17-5.63,12.33-8.39,18.53-.48,1.07-1.31,1.29-2.23,1.47Z"/><path class="cls-1" d="m42.52,180.71c-1.55-2.55-1.58-4.68-.43-7.1,2.37-5.01,4.45-10.17,6.68-15.25.23-.53.62-1.04,1.07-1.4.69-.55,1.46-1.04,2.38-.36,1.06.78,1.39,1.76.91,2.89-2.67,6.24-5.31,12.5-8.09,18.68-.44.98-1.6,1.64-2.52,2.53Z"/><path class="cls-1" d="m27.43,116.74c.28.26.31.29.33.32,1.43,2.18,1.45,4.3.28,6.72-2.48,5.13-4.69,10.4-7,15.61-.54,1.21-1.63,1.62-2.75,1.45-.56-.08-1.11-.88-1.47-1.47-.19-.32-.1-.94.07-1.34,2.69-6.35,5.36-12.72,8.18-19.01.41-.91,1.52-1.5,2.36-2.28Z"/></g></svg>