<?xml version="1.0" encoding="UTF-8"?><svg id="Lager_2" xmlns="http://www.w3.org/2000/svg" viewBox="0 0 184.64 209.92"><defs><style>.cls-1{stroke-width:0px;}</style></defs><g id="Lager_1-2"><path class="cls-1" d="m124.84,156.42c4.56,7.96,9.13,15.69,13.39,23.58.71,1.31.09,3.34.09,5.04-1.37-.85-3.27-1.37-4.02-2.59-4.69-7.65-9.12-15.46-13.9-23.67-18.61,8.62-37.25,9.08-56.2-.18-4.37,7.53-8.59,14.82-12.82,22.12-.5.86-.8,1.97-1.53,2.54-1.04.82-2.38,1.24-3.6,1.84-.19-1.45-1-3.22-.45-4.28,2.75-5.32,5.87-10.45,8.85-15.64,1.65-2.87,3.29-5.74,5.13-8.95-16.8-11.7-26.32-27.56-28.01-48.59-8.09,0-16.04.2-23.97-.11-2.63-.11-5.21-1.55-7.81-2.38,1.46-4.21,5.04-2.26,7.64-2.34,7.95-.27,15.92-.1,24.07-.1,1.15-13.53,4.99-25.45,13.53-35.37,3.44-4,7.46-7.57,11.55-10.93,2.26-1.86,2.77-3.23,1.23-5.78-3.88-6.41-7.68-12.87-11.17-19.49-.88-1.67-.49-4-.69-6.03,1.56,1.12,3.66,1.9,4.59,3.41,3.76,6.07,7.27,12.32,10.67,18.61,1.64,3.04,3.1,4.3,6.9,2.62,16.09-7.06,32.39-6.77,48.44.16,3.17,1.37,4.32.61,5.76-2.05,3.48-6.44,7.08-12.83,10.95-19.04,1.03-1.65,3.98-3.99,4.74-3.58,3.61,1.94.41,4.35-.57,6.15-4.06,7.42-8.47,14.66-12.71,21.89,4.68,4.45,9.47,8.32,13.44,12.91,7.92,9.16,12.73,19.86,13.74,32.05.27,3.31,1.5,4.59,4.98,4.48,7.66-.23,15.33-.17,22.99.1,1.55.06,3.05,1.58,4.58,2.42-1.47.79-2.91,2.23-4.4,2.27-7.82.23-15.66-.03-23.49.23-1.47.05-3.88,1.43-4.17,2.62-6.64,26.62-7.52,28.18-27.74,46.08Zm-32.17-106.68c-31.03.08-55.75,24.31-55.75,54.65,0,31.99,24.69,56.3,56.94,56.09,28.93-.19,53.87-25.56,53.85-54.78-.03-31.19-24.46-56.03-55.04-55.96Z"/><path class="cls-1" d="m149.78,135.72c1.13.51,2.05.84,2.89,1.32,9.47,5.47,18.97,10.89,28.33,16.54,1.18.71,1.6,2.68,2.37,4.06-1.61.04-3.56.7-4.77.02-9.69-5.41-19.28-11.01-28.8-16.72-1.03-.61-1.63-2.19-2.02-3.44-.11-.34,1.26-1.15,2.01-1.79Z"/><path class="cls-1" d="m94.76,20.72c0,5.48.15,10.96-.11,16.42-.06,1.27-1.5,2.48-2.3,3.72-.81-1.2-2.29-2.39-2.32-3.61-.21-11.12-.23-22.24-.1-33.35.02-1.31,1.3-2.6,1.99-3.9.94,1.27,2.63,2.49,2.7,3.8.3,5.63.13,11.28.13,16.92Z"/><path class="cls-1" d="m3.09,158.92c-.61-.47-1.96-1.06-1.93-1.57.06-1.12.52-2.69,1.35-3.22,4.91-3.09,9.96-5.93,14.98-8.84,5.02-2.91,10-5.89,15.13-8.59,1.01-.53,2.63.11,3.97.21-.39,1.26-.4,3.17-1.24,3.67-10.11,6.01-20.35,11.81-30.56,17.65-.42.24-.91.37-1.7.68Z"/><path class="cls-1" d="m184.56,54.65c-.87.46-1.76.89-2.61,1.38-9.92,5.74-19.79,11.56-29.8,17.14-1.02.57-2.82-.25-4.26-.43.55-1.25.76-3.08,1.71-3.65,10.01-5.91,20.1-11.68,30.3-17.27.94-.52,2.73.51,4.12.82.18.67.36,1.33.54,2Z"/><path class="cls-1" d="m89.87,189.29c0-5.31-.17-10.62.11-15.92.08-1.41,1.54-2.75,2.37-4.12.81,1.27,2.3,2.53,2.32,3.81.19,11.11.2,22.23.01,33.34-.02,1.19-1.64,2.35-2.51,3.53-.76-1.24-2.11-2.45-2.17-3.72-.24-5.63-.1-11.27-.1-16.91h-.03Z"/><path class="cls-1" d="m3.26,51.11c1.28.64,2.34,1.1,3.34,1.67,9.07,5.21,18.17,10.36,27.13,15.76,1.37.83,2.04,2.83,3.03,4.29-1.74-.03-3.82.55-5.18-.19-9.46-5.18-18.82-10.56-28.09-16.07-1.15-.69-1.76-2.44-2.33-3.82-.09-.22,1.36-1.07,2.09-1.63Z"/></g></svg>