<?xml version="1.0" encoding="UTF-8"?><svg id="Lager_2" xmlns="http://www.w3.org/2000/svg" viewBox="0 0 199.8 110.76"><defs><style>.cls-1{stroke-width:0px;}</style></defs><g id="Lager_1-2"><path class="cls-1" d="m107.73,110.71c-20.83,0-41.66-.12-62.49.05-13.82.11-23.7-5.31-28.74-18.64-.56-1.47-2.34-2.68-3.82-3.56-14.25-8.49-16.81-24.36-6.05-36.96,1.07-1.25,1.62-3.54,1.38-5.2-2.14-15.01,7.47-26.44,22.75-27.02,1.5-.06,3.53-1.08,4.34-2.31,14.32-21.68,43.53-21.86,58.33-5.28.79.89,3.65,1.01,4.83.3,22.5-13.51,45.22-8.66,60.74,12.99.86,1.2,2.84,2.19,4.34,2.25,19.24.77,29.82,13.7,26.86,32.62-.28,1.77,1.16,4.25,2.51,5.78,13.46,15.18,6.87,38.67-12.61,43.96-3.62.98-7.59.96-11.4.98-20.33.09-40.66.04-60.99.05Zm-1.04-5.05s0,.09,0,.13c5.66,0,11.33,0,16.99,0,16.16,0,32.32.07,48.48-.02,9.89-.06,18.07-5.39,20.97-13.33,3.67-10.06,1.61-18.67-6.68-25.55-2.66-2.21-2.41-4.21-1.59-6.95,4.53-15.22-6.82-29-22.66-27.3-3.35.36-4.99-.43-6.67-3.34-8.09-14.01-20.41-20.86-36.55-19.37-16.18,1.49-27,10.6-32.18,25.89-1.55,4.57-3.12,5.41-7.74,4.01-13.15-4-27.04,4.06-30.11,17.42-.95,4.11-3.04,4.44-6.49,5.08-4.91.91-10.24,2.12-14.23,4.88-7.56,5.21-9.85,15.36-6.78,24.23,2.87,8.31,10.58,14.12,19.76,14.18,21.82.16,43.65.05,65.47.05ZM14.4,83.43c.42-.54.74-.78.8-1.06,3.56-16.81,8.87-21.89,26.17-25.31,1.19-.24,2.8-1.4,3.13-2.47,4.86-15.44,20.13-22.95,34.16-20.26,1.15.22,3.2-.74,3.82-1.76,2.99-4.93,5.63-10.06,8.61-15.52-.24-.32-.77-1.16-1.43-1.88C74.95-.71,50.35,2.11,38.68,21.17c-1.74,2.84-3.23,3.73-6.62,3.38-12.65-1.32-22.21,10-18.7,22.17.98,3.39.53,5.28-2.16,7.66-9.59,8.52-8,22.65,3.19,29.05Z"/></g></svg>