<?xml version="1.0" encoding="UTF-8"?><svg id="Lager_2" xmlns="http://www.w3.org/2000/svg" viewBox="0 0 231.58 148.08"><defs><style>.cls-1{stroke-width:0px;}</style></defs><g id="Lager_1-2"><path class="cls-1" d="m115.41,148.02c-22.86,0-45.71.17-68.57-.05-24.77-.23-42.35-14.14-46.17-36.07-3.54-20.33,6.98-39.85,26.31-47.61,4.57-1.83,6.15-4.43,7.28-8.84,4.29-16.66,18.2-27.1,35.33-26.38,4.58.19,7.03-1.44,9.78-4.69,33.33-39.4,94.2-29.43,111.98,18.25,4.16,11.15,10.45,19,20.23,25.26,15.47,9.9,23.16,29.11,18.75,46.8-4.44,17.78-19.42,31.83-37.55,32.48-25.76.92-51.58.23-77.37.23v.61Zm-.03-8.87c23.61,0,47.21.04,70.82-.01,19.67-.04,34.36-12.39,36.41-30.48,2.11-18.68-9.2-34.31-28.61-38.68-5.36-1.21-6.94-3.51-7.35-8.87-1.87-24.52-18.55-44.46-41.73-50.74-22.89-6.2-46.7,2.35-61.03,22.4-3.14,4.39-6.19,5.86-11.61,5.05-15.54-2.32-29.08,8.24-30.46,23.79-.47,5.3-2.35,7.61-7.46,9.08-17.37,4.99-28.28,21.52-25.73,38.06,2.81,18.22,17.08,30.32,35.94,30.36,23.61.05,47.21.01,70.82.03Z"/></g></svg>