<?xml version="1.0" encoding="UTF-8"?><svg id="Lager_2" xmlns="http://www.w3.org/2000/svg" viewBox="0 0 184.78 138.19"><defs><style>.cls-1{stroke-width:0px;}</style></defs><g id="Lager_1-2"><path class="cls-1" d="m66.49,30c5.62-15.15,15.76-25.12,31.45-28.88,17.38-4.17,35.78,3.51,45.56,18.57.99,1.53,3.53,2.91,5.36,2.92,17.51.16,29.49,14.59,26.31,31.75-.32,1.73.4,4.24,1.57,5.58,7.57,8.63,10.35,18.28,5.96,29.1-4.43,10.92-13.01,16.93-24.76,16.99-43.81.22-87.62.27-131.43,0C11.71,105.93.5,94.37.02,80.07c-.48-14.41,10.18-25.92,25.35-27.59,1.35-.15,3.19-1.14,3.77-2.27,9.32-18.2,16.62-22.27,37.36-20.2Zm25.93,71.14v-.02c21.65,0,43.3.06,64.94-.03,9.89-.04,17.57-5.38,20.92-14.16,3.36-8.82,1.23-17.88-6.4-24.32-2.84-2.4-3.03-4.45-2.07-7.71,4.45-15.12-7.47-28.95-23.09-26.84-2.94.4-4.53-.3-6.02-2.9-8.54-15-21.55-22-38.67-19.65-15.86,2.17-26.05,11.78-30.91,26.89-1.09,3.38-2.4,4.11-5.72,3.14-14.73-4.32-27.44,2.49-31.54,17-1.04,3.69-2.64,5.1-6.55,4.98-9.2-.29-16.2,4.02-20.1,12.19-7.22,15.15,3.19,31.23,20.24,31.39,21.65.21,43.3.05,64.94.05Z"/><path class="cls-1" d="m60.31,137.07c-.32-1.33-1.27-2.9-.87-3.95,2.06-5.39,4.35-10.71,6.87-15.9.43-.9,2.31-1.1,3.51-1.63.3,1.16,1.17,2.55.81,3.45-2.13,5.37-4.54,10.62-6.84,15.92-.46,1.06-.85,2.15-1.27,3.23-.74-.37-1.48-.75-2.21-1.12Z"/><path class="cls-1" d="m23.56,137.22c-.56-1.28-1.63-2.53-1.34-3.25,2.32-5.84,4.82-11.61,7.48-17.3.31-.67,2.11-1.27,2.82-.97.7.29,1.52,2.02,1.24,2.7-2.35,5.82-4.89,11.57-7.5,17.29-.26.57-1.31.78-2.71,1.54Z"/><path class="cls-1" d="m134.88,137.53c-.71-1.66-1.86-3.03-1.54-3.83,2.23-5.7,4.67-11.33,7.3-16.86.36-.75,2.16-.82,3.29-1.21.34,1.01,1.23,2.24.92,2.99-2.24,5.52-4.68,10.97-7.18,16.38-.36.77-1.35,1.25-2.79,2.53Z"/><path class="cls-1" d="m108.33,117.91c-2.72,6.09-5.3,12.02-8.11,17.84-.28.57-2.23.9-2.98.51-.65-.34-1.23-2.06-.93-2.8,2.24-5.53,4.62-11.02,7.21-16.4.39-.81,2.04-1.29,3.15-1.36.48-.03,1.05,1.35,1.66,2.2Z"/></g></svg>