<?xml version="1.0" encoding="UTF-8"?><svg id="Lager_2" xmlns="http://www.w3.org/2000/svg" viewBox="0 0 255.91 159.92"><defs><style>.cls-1,.cls-2{stroke-width:0px;}.cls-2{fill:#fff;}</style></defs><g id="Lager_1-2"><path class="cls-1" d="m130.13,14.58C141.01.49,158.45-2.94,172.37,2.37c7.85,2.99,13.92,8.15,18.21,15.36,4.3,7.23,5.61,15.07,4.46,23.36,2.49.48,4.89.83,7.24,1.43,9.26,2.35,16.81,7.35,22.66,14.9.7.91,1.42,1.25,2.55,1.24,7.86-.05,15.71-.03,23.57-.02,2.98,0,4.86,1.74,4.86,4.45,0,2.72-1.9,4.49-4.85,4.5-6.15.01-12.3,0-18.44,0-.53,0-1.06,0-1.87,0,3.28,8.88,3.69,17.72.89,26.99,1.22,0,2.21-.02,3.19,0,1.02.02,2.07-.06,3.06.15,2.13.45,3.48,2.49,3.31,4.72-.17,2.12-1.81,3.88-3.98,3.98-2.78.12-5.56.03-8.34.09-.52.01-1.28.18-1.51.54-2.54,3.91-5.63,7.33-9.16,10.61.55,0,1.1,0,1.66,0,6.1,0,12.2-.01,18.3,0,2.27,0,4.1,1.44,4.51,3.44.45,2.19-.49,4.28-2.47,5.08-.78.32-1.71.4-2.56.4-56.36.02-112.72.02-169.07.02-17.86,0-35.72,0-53.58,0-2.73,0-4.4-1.05-5-3.14-.9-3.13,1.21-5.78,4.67-5.8,5.12-.03,10.25,0,15.37,0,.38,0,.76-.04,1.37-.07-.37-.41-.59-.69-.85-.93-5.11-4.66-8.56-10.34-10.28-17.03-.3-1.18-.78-1.51-1.98-1.49-4.49.08-8.98.04-13.47.03C1.84,95.15-.02,93.4,0,90.68c.02-2.71,1.91-4.45,4.88-4.46,4.15-.01,8.3,0,12.44,0,.53,0,1.05,0,1.53,0,.46-2.58.76-5.05,1.36-7.44,3.39-13.65,15.3-24.33,29.26-26.27,1.97-.27,3.98-.35,5.97-.41.96-.03,1.37-.28,1.43-1.31,1.26-21.92,17.96-39.97,39.99-43.3,11.35-1.72,22.02.48,31.89,6.39.38.22.75.45,1.13.66.04.02.09.02.25.04ZM28.11,86.21c.7,0,1.27,0,1.84,0,11.71,0,23.42-.04,35.13.05,1.22,0,2.61.49,3.63,1.17,1.53,1.02,1.88,3.13,1.21,4.89-.69,1.81-2.22,2.84-4.34,2.84-11.52,0-23.03,0-34.55,0-.55,0-1.11,0-2.15,0,1.14,2.34,1.94,4.39,3.08,6.23,5.69,9.19,14.46,13.16,24.81,13.2,45.23.16,90.47.09,135.7.01,9.02-.02,16.64-3.65,22.98-10.02.25-.25.41-.57.74-1.03-.7-.03-1.18-.07-1.65-.07-12.78-.01-25.57-.02-38.35-.03-.49,0-.98,0-1.46-.06-1.99-.26-3.48-1.78-3.71-3.75-.35-2.97,1.6-5.07,4.79-5.07,14.88-.01,29.77-.02,44.65.02,1.3,0,1.89-.44,2.29-1.64,2.75-8.14,2.36-16.09-1.16-23.93-.49-1.09-1.08-1.49-2.29-1.49-9.51.05-19.03.03-28.55.03-3.05,0-5.04-1.78-5.05-4.47,0-2.74,1.93-4.48,5-4.48,7.03,0,14.05,0,21.08,0,.51,0,1.01-.04,1.71-.07-.24-.34-.31-.52-.44-.63-5.11-4.28-10.96-6.87-17.6-7.57-1.83-.19-3.7-.15-5.55-.16-1.86-.02-3.14-.95-4.37-2.28-1.18-1.28-.92-2.5-.48-3.88,1.3-4.05,1.82-8.19,1.14-12.41-2.55-15.69-18.15-25.84-33.58-21.78-7.59,2-13.35,6.44-17.2,13.32-.36.64-.84,1.4-1.45,1.67-2.32,1.04-4.43.69-6.53-.92-8.14-6.25-17.4-8.88-27.59-7.76-20.37,2.24-36.13,20.14-33.91,41.37.05.43-.06.99-.31,1.33-1.58,2.15-3.62,3.03-6.37,2.55-11.94-2.08-24.38,4.74-29.11,15.88-1.18,2.79-1.96,5.67-2.04,8.92Z"/><path class="cls-1" d="m206.07,159.91c-10.14,0-20.28,0-30.43,0-2.91,0-4.75-1.87-4.66-4.63.07-2.3,1.78-4.07,4.17-4.3.29-.03.58-.01.88-.01,20.04,0,40.08,0,60.12,0,3.67,0,5.9,2.84,4.78,6.05-.64,1.84-2.22,2.9-4.43,2.9-7.12.01-14.24,0-21.36,0-3.02,0-6.05,0-9.07,0Z"/><path class="cls-1" d="m58.38,140.01c10.09,0,20.19,0,30.28,0,2.63,0,4.34,1.34,4.74,3.63.47,2.68-1.25,4.99-3.95,5.29-.34.04-.68.02-1.02.02-20.04,0-40.08,0-60.12,0-3.75,0-6.02-2.97-4.75-6.17.72-1.81,2.27-2.77,4.54-2.77,10.09,0,20.19,0,30.28,0Z"/><path class="cls-1" d="m134.97,144.47c-10.04,0-20.09,0-30.13,0-3.13,0-5.04-1.85-4.93-4.68.08-2.13,1.68-3.9,3.8-4.16.63-.08,1.27-.07,1.9-.07,19.65,0,39.29,0,58.94,0,.54,0,1.07,0,1.61.05,2.37.22,3.95,1.99,3.97,4.42.01,2.37-1.63,4.29-4,4.37-3.12.12-6.24.06-9.36.06-7.26,0-14.53,0-21.79,0Z"/><path class="cls-2" d="m149.36,74.36c-9.9,0-19.8,0-29.7,0-.63,0-1.27,0-1.9.09-2.45.35-4.1,2.68-3.65,5.1.49,2.6,2.22,3.8,5.54,3.8,19.75,0,39.51,0,59.26,0,.68,0,1.37-.05,2.03-.2,2.34-.52,3.81-2.93,3.25-5.25-.58-2.39-2.14-3.53-4.99-3.53-9.95-.01-19.9,0-29.85,0Zm-33.56,17.24c-9.71,0-19.42,0-29.13,0-.63,0-1.27-.02-1.9.03-1.9.16-3.2,1.21-3.78,2.98-.56,1.69-.23,3.28,1.05,4.6,1.03,1.07,2.33,1.29,3.75,1.29,19.96-.01,39.92,0,59.88,0,.44,0,.88,0,1.32-.04,1.91-.16,3.16-1.21,3.78-2.98,1.08-3.07-1.13-5.88-4.65-5.88-10.1-.02-20.2,0-30.3,0Z"/><path class="cls-1" d="m149.36,74.36c9.95,0,19.9,0,29.85,0,2.85,0,4.41,1.14,4.99,3.53.56,2.32-.91,4.73-3.25,5.25-.66.15-1.35.2-2.03.2-19.75.01-39.51.01-59.26,0-3.32,0-5.05-1.2-5.54-3.8-.45-2.42,1.2-4.75,3.65-5.1.62-.09,1.26-.09,1.9-.09,9.9,0,19.8,0,29.7,0Z"/><path class="cls-1" d="m115.8,91.6c10.1,0,20.2-.01,30.3,0,3.52,0,5.73,2.81,4.65,5.88-.62,1.76-1.86,2.82-3.78,2.98-.44.04-.88.04-1.32.04-19.96,0-39.92,0-59.88,0-1.42,0-2.72-.22-3.75-1.29-1.28-1.32-1.61-2.91-1.05-4.6.58-1.77,1.88-2.82,3.78-2.98.63-.05,1.27-.03,1.9-.03,9.71,0,19.42,0,29.13,0Z"/></g></svg>