<?xml version="1.0" encoding="UTF-8"?><svg id="Lager_2" xmlns="http://www.w3.org/2000/svg" viewBox="0 0 219.88 180.73"><defs><style>.cls-1{stroke-width:0px;}</style></defs><g id="Lager_1-2"><path class="cls-1" d="m115.62,13.96c7.26-5.14,15.17-8.76,24.32-9.09,16.52-.59,29.37,6.03,38.47,19.74,1.48,2.22,2.83,3.06,5.52,3.08,18.06.09,29.25,13.97,26.23,32.02-.27,1.6.51,3.89,1.62,5.12,7.9,8.74,10.43,18.6,5.75,29.51-4.74,11.03-13.64,16.47-25.63,16.49-42.97.07-85.95.07-128.92.03-12.46-.01-21.33-6.22-26.3-17.82-.71-1.65-2.24-3.28-3.82-4.15-14.17-7.82-17.14-24.45-6.64-36.86,1.19-1.4,1.95-3.9,1.67-5.7-2.51-16.04,9.85-27.32,22.94-26.88,1.32.04,3.28-.85,3.94-1.93,12.33-20.14,41.98-24.69,59.86-4.2.21.24.54.37.97.65Zm11.81,91.95c21.49,0,42.97.06,64.46-.02,10.42-.04,17.82-5.08,21.36-14.2,3.47-8.95,1.24-17.6-6.69-24.66-2.13-1.9-2.84-3.48-1.99-6.41,4.66-16.07-5.52-28.75-22.33-27.81-3.23.18-5.02-.52-6.74-3.46-8.37-14.31-21.06-21.26-37.55-19.3-16.27,1.93-26.88,11.51-31.74,27.17-1.04,3.33-2.37,3.97-5.77,3-15.18-4.34-27.43,2.66-31.74,17.99-.83,2.96-2.32,3.59-5.22,3.9-4.21.44-8.7,1.14-12.4,3.04-8.31,4.25-12.8,14.84-10.7,23.3,2.61,10.54,11.14,17.4,22.09,17.44,21.65.08,43.31.02,64.96.02Zm-92.69-22.03c1.31-11.18,6.01-19.86,16.26-24.33,3.86-1.69,9.18-.89,12.26-3.27,3.07-2.38,3.63-7.74,6.24-11.04,8.16-10.31,19.13-13.07,31.39-10.38,3.43-5.97,6.72-11.69,10.35-18.03-2.25-1.99-4.6-4.63-7.45-6.48C87.77-.01,68.23,4.73,58.57,21.29c-1.52,2.61-2.97,3.8-6.24,3.43-13.01-1.49-22.46,9.41-19.06,22.18.94,3.51.17,5.26-2.33,7.59-9.45,8.82-7.84,22.45,3.8,29.39Z"/><path class="cls-1" d="m42.33,180.46c-.52-1.7-1.58-3.25-1.19-4.24,2.42-6.2,5.1-12.3,7.87-18.35.37-.81,1.84-1.71,2.62-1.57.75.14,2,1.86,1.79,2.38-2.74,6.76-5.68,13.45-8.65,20.12-.22.5-1.04.73-2.44,1.66Z"/><path class="cls-1" d="m1.66,180.44c-.67-1.42-1.92-2.83-1.61-3.62,2.63-6.63,5.5-13.17,8.46-19.67.28-.61,1.95-1.24,2.44-.95.82.48,1.91,1.98,1.67,2.56-2.75,6.78-5.71,13.48-8.69,20.17-.21.48-1.01.7-2.27,1.51Z"/><path class="cls-1" d="m184.21,142.22c-.57-2.09-1.58-3.66-1.18-4.68,2.42-6.18,5.08-12.27,7.89-18.28.4-.85,2.06-1.11,3.14-1.65.42,1.1,1.47,2.46,1.15,3.26-2.51,6.31-5.25,12.53-8.03,18.73-.35.77-1.36,1.24-2.97,2.61Z"/><path class="cls-1" d="m179.1,158.22c-.67,1.66-1.19,3.06-1.78,4.43-2.13,4.87-4.15,9.8-6.52,14.56-.56,1.12-2.32,1.63-3.53,2.42-.32-1.3-1.25-2.85-.85-3.86,2.31-5.87,4.83-11.67,7.54-17.37.49-1.04,2.14-1.67,3.39-2.1.33-.11,1.16,1.25,1.76,1.93Z"/><path class="cls-1" d="m125.92,180.73c-.69-1.81-1.89-3.36-1.53-4.28,2.5-6.33,5.24-12.57,8.14-18.72.38-.8,2.12-.97,3.23-1.43.37,1.01,1.32,2.25,1.03,2.98-2.61,6.46-5.42,12.84-8.25,19.2-.29.65-1.18,1.04-2.62,2.25Z"/><path class="cls-1" d="m154.07,120.16c-3.06,6.81-6,13.47-9.11,20.04-.27.56-2.06,1.05-2.52.72-.74-.54-1.58-2.04-1.31-2.7,2.65-6.6,5.45-13.14,8.42-19.61.28-.61,2.04-.94,2.96-.74.63.14,1.01,1.43,1.57,2.3Z"/><path class="cls-1" d="m112.32,120.14c-3.04,6.77-5.96,13.42-9.1,19.97-.28.58-2.26.98-2.9.58-.71-.45-1.34-2.13-1.04-2.88,2.55-6.28,5.25-12.51,8.14-18.64.38-.81,2.1-1.26,3.23-1.33.47-.03,1.03,1.38,1.66,2.3Z"/><path class="cls-1" d="m70.55,119.83c-.87,2.1-1.6,3.94-2.39,5.76-1.91,4.42-3.72,8.9-5.87,13.2-.51,1.02-2.23,1.44-3.39,2.14-.35-1.27-1.32-2.78-.93-3.77,2.35-6.03,4.92-11.99,7.66-17.86.39-.84,2.06-1.32,3.2-1.45.48-.05,1.11,1.24,1.73,1.98Z"/><path class="cls-1" d="m27.7,116.87c.56,1.65,1.72,3.24,1.33,4.21-2.53,6.32-5.33,12.53-8.23,18.69-.33.69-1.9,1.2-2.79,1.08-.56-.08-1.53-1.73-1.32-2.27,2.75-6.76,5.66-13.45,8.61-20.13.22-.49,1.04-.72,2.4-1.59Z"/><path class="cls-1" d="m83.92,180.71c-.46-2.13-1.37-3.73-.95-4.81,2.37-6.03,4.98-11.97,7.73-17.84.42-.9,1.99-1.26,3.02-1.87.45,1.1,1.55,2.46,1.23,3.26-2.51,6.34-5.24,12.59-8.03,18.81-.33.75-1.39,1.17-3.02,2.45Z"/></g></svg>