<?xml version="1.0" encoding="UTF-8"?><svg id="Lager_2" xmlns="http://www.w3.org/2000/svg" viewBox="0 0 184.59 132.28"><defs><style>.cls-1{stroke-width:0px;}</style></defs><g id="Lager_1-2"><path class="cls-1" d="m64.5,30.02c5.37-7.03,9.32-14.22,15.09-19.36,19.36-17.26,48.87-12.98,63.15,8.63,1.76,2.67,3.36,3.7,6.72,3.66,16.85-.25,28.67,14.72,25.69,31.84-.3,1.71.36,4.18,1.5,5.45,7.77,8.62,10.13,18.37,5.79,29.11-4.43,10.97-13.15,16.62-24.89,16.82-15.16.26-30.33.05-45.49-.17-1.58-.02-3.14-1.49-4.71-2.29,1.57-.81,3.13-2.29,4.71-2.32,14.83-.22,29.66-.47,44.49-.18,17.32.34,27.95-16.83,20.72-31.44-1.36-2.75-3.42-5.4-5.78-7.35-2.44-2.02-3.17-3.66-2.11-6.74,5.93-17.14-10.18-30.94-23.49-27.38-3.32.89-4.22-1.51-5.55-3.7-8.57-14.15-21.09-21.15-37.65-19.17-15.68,1.87-26.16,10.93-31.22,25.82-1.43,4.2-2.77,5.36-7.36,3.98-13.17-3.98-26.25,3.23-30.19,16.64-1.29,4.39-3.22,5.64-7.57,5.72-10.87.19-19.55,7.76-21.06,17.73-1.7,11.22,3.6,21.01,14.25,24.43,4.61,1.48,9.83,1.13,14.79,1.37,4.65.22,9.33,0,13.98.26.99.06,1.91,1.37,2.86,2.11-.81.87-1.64,2.51-2.42,2.49-10.74-.4-21.72,2.14-32.17-1.99C4.83,99.37-1.51,87.84.31,75.07c1.7-11.89,11.87-21.25,24.06-22.5,1.73-.18,4.2-1.43,4.82-2.85,7-15.81,17.4-21.92,34.37-19.8.8.1,1.61.18.94.11Z"/><path class="cls-1" d="m56.88,111.7c1.42-3.84,2.36-7.94,4.36-11.45,4.27-7.49,9.06-14.68,13.69-21.97,2.59-4.07,4.07-4.12,6.77.05,4.95,7.67,9.9,15.34,14.51,23.21,4.62,7.89,3.4,17.06-2.7,24.05-5.4,6.19-14.23,8.32-22.23,5.39-8.15-2.99-13.49-10.44-14.39-19.27Zm21.45-29.68c-5.16,8.35-9.94,15.52-14.11,23.03-3.53,6.36-1.52,14.13,4.16,18.9,5.1,4.29,13.74,4.56,19.05.6,6.17-4.61,8.63-12.28,5.08-19.04-4.06-7.73-9-15-14.18-23.49Z"/><path class="cls-1" d="m117.53,84.63c-9.24-.28-15.55-9.86-11.53-18.1,2.61-5.36,6.02-10.34,9.23-15.39,1.73-2.72,3.76-2.48,5.41.17,3.07,4.94,6.42,9.74,8.98,14.94,4.28,8.7-2.45,18.67-12.08,18.38Zm.34-28.5c-2.63,4.24-4.93,7.66-6.93,11.25-2.09,3.76-1.7,7.44,1.64,10.3,3.33,2.85,7.13,2.82,10.45.13,3.38-2.74,3.86-6.53,1.84-10.3-1.94-3.61-4.29-7.01-7-11.38Z"/></g></svg>