<?xml version="1.0" encoding="UTF-8"?><svg id="Lager_2" xmlns="http://www.w3.org/2000/svg" viewBox="0 0 206.78 167.94"><defs><style>.cls-1{stroke-width:0px;}</style></defs><g id="Lager_1-2"><path class="cls-1" d="m38.99,115.81c-8.07-8.29-12.58-17.71-14.3-28.57-.19-1.2-2.52-2.85-3.94-2.93-5.64-.35-11.32-.02-16.98-.26-1.28-.06-2.51-1.4-3.77-2.16,1.22-.86,2.41-2.43,3.66-2.48,6.79-.25,13.59-.12,20.28-.12,4.89-22.17,8.8-26.04,21.89-37.54-3.23-5.66-6.65-11.34-9.7-17.22-.73-1.41-.23-3.46-.29-5.22,1.48.97,3.46,1.61,4.34,2.97,3.07,4.74,5.63,9.81,8.67,14.56.64,1,2.86,2.02,3.78,1.64,13.54-5.61,26.92-5.01,40.76.96,2.81-4.79,5.56-9.47,8.3-14.17.5-.86.73-1.99,1.43-2.6,1.43-1.25,3.09-2.23,4.66-3.32-.08,1.88.42,4.05-.35,5.59-2.46,4.9-5.4,9.55-8.14,14.31-.49.84-.87,1.75-.1,1.97,5.21,6.94,10.31,13.98,15.76,20.73.84,1.04,3.43,1.33,5.02,1.01,16.62-3.29,30.93,1.02,41.67,14.03,4.27,5.17,8.01,7.87,15.03,8.51,14.15,1.29,23.41,16.13,20.8,30.64-.33,1.86.28,4.54,1.49,5.91,7.7,8.67,9.9,18.39,5.75,29.17-4.05,10.55-13.64,16.67-25.44,16.68-42.8.03-85.61.03-128.41,0-13.75,0-24.06-7.1-27.54-18.8-3.7-12.46,1.06-24.04,12.98-31.55.69-.43,1.36-.89,2.68-1.76Zm75.18,47.21v.02c21.49,0,42.98.02,64.46,0,10.78-.02,18.42-5.2,22-14.78,3.09-8.28.44-17.57-7.22-24.16-2.24-1.93-2.69-3.6-1.79-6.45,4.85-15.29-5.93-28.91-22.02-27.72-3.73.28-5.55-.78-7.48-4-8.3-13.85-20.87-20.66-36.88-18.78-15.9,1.88-26.77,11.05-31.72,26.54-1.12,3.5-2.41,4.72-6.4,3.61-14.5-4.06-26.76,2.63-31.23,17.05-1.15,3.72-2.76,4.91-6.53,5-13.15.34-22.38,9.67-22.19,22,.2,12.79,9.51,21.61,23.03,21.65,21.32.05,42.64.01,63.96.01Zm-25.36-71.36c3.77-11.32,11.26-19.88,21.98-25.66-.31-.98-.46-1.61-.71-2.19-6.74-15.62-23.05-25.02-41.8-24.08-15.75.79-31.17,12.61-36.34,27.87-5.49,16.21-1.08,34.35,10.93,44.93,3.88,3.42,7.2,2.65,9.07-2.08,4.04-10.23,11.39-16.78,22.23-18.64,4.63-.79,9.5-.13,14.63-.13Z"/><path class="cls-1" d="m74.36,16.76c0,4.15.2,8.31-.12,12.43-.09,1.18-1.67,2.25-2.56,3.38-.73-1.08-2.07-2.15-2.09-3.25-.18-8.62-.18-17.25-.02-25.88.02-1.16,1.23-2.29,1.9-3.43.96,1.11,2.66,2.16,2.74,3.33.33,4.46.13,8.95.13,13.43,0,0,.01,0,.02,0Z"/><path class="cls-1" d="m143.41,42.23c-1.01.97-1.89,2.18-3.06,2.87-7.16,4.23-14.33,8.42-21.63,12.39-1.07.58-2.83-.12-4.27-.22.62-1.33.87-3.27,1.92-3.91,7.36-4.51,14.84-8.85,22.42-12.99,1.07-.59,2.87.15,4.33.27.1.53.2,1.06.3,1.6Z"/><path class="cls-1" d="m3.3,124c-.74-.46-2.03-.82-2.19-1.46-.23-.89.05-2.56.68-2.94,8.12-4.86,16.32-9.6,24.59-14.19.61-.34,1.94.6,2.94.94-.65,1.32-.95,3.21-2.01,3.86-7.09,4.33-14.33,8.39-21.54,12.53-.71.41-1.46.75-2.47,1.26Z"/><path class="cls-1" d="m30.65,56.77c-2.13.55-3.87,1.62-4.76,1.13-7.99-4.38-15.86-8.98-23.65-13.7-.78-.47-.82-2.16-1.2-3.29,1.18-.26,2.68-1.11,3.48-.67,7.99,4.39,15.86,8.98,23.74,13.57.63.36.99,1.18,2.4,2.96Z"/></g></svg>