<?xml version="1.0" encoding="UTF-8"?><svg id="Lager_2" xmlns="http://www.w3.org/2000/svg" viewBox="0 0 184.76 175.21"><defs><style>.cls-1{stroke-width:0px;}</style></defs><g id="Lager_1-2"><path class="cls-1" d="m26.3,65.46c-4.07-10.41-5.15-20.5-2.64-30.9C28.51,14.48,48.23-.7,68.93.02c1.76.06,3.48,1.27,5.22,1.94-1.2,1.39-2.15,3.22-3.65,4.09-12.47,7.23-15.52,22.29-14.4,33.42.11,1.1,1.82,2.52,3.07,2.9,2.18.67,4.57.64,6.51.86,3.19-5.13,5.71-10.44,9.34-14.84,17.73-21.47,51.39-19.89,67.19,3.07,2.16,3.14,4.16,4.53,8.26,4.7,17.01.69,27.38,14.35,24.8,31.62-.25,1.64.09,4.01,1.13,5.1,7.91,8.25,10.36,17.83,6.63,28.49-3.83,10.97-12.16,16.79-23.66,17.82-4.46.4-9,.32-13.48.07-1.31-.07-2.54-1.49-3.81-2.29,1.35-.85,2.65-2.33,4.06-2.45,4.8-.4,9.68.03,14.46-.51,9.41-1.07,15.67-6.59,18.24-15.51,2.5-8.67.42-16.67-6.7-22.55-2.93-2.42-3.45-4.39-2.36-7.97,4.54-15.02-7.75-29.07-23.2-26.63-3.1.49-4.56-.6-5.93-3.07-7.88-14.21-20.12-21.09-36.22-19.82-16.38,1.29-27.37,10.34-32.76,25.84-1.39,3.99-2.7,5.68-7.4,4.15-12.8-4.15-25.95,2.83-29.94,16.04-1.41,4.67-3.38,6.24-8.19,6.28-10.16.1-18.4,7.09-20.54,16.58-2.3,10.15,2.18,20.23,11.67,24.58,3.64,1.67,8.02,2.33,12.07,2.39,17.16.25,34.32.1,51.48.11,1.66,0,3.39-.17,4.97.22,1.02.26,1.82,1.4,2.72,2.15-.89.83-1.68,1.83-2.7,2.43-.63.37-1.63.13-2.46.13-18.49,0-36.99.15-55.48-.05-11.63-.13-20.69-5.16-25.42-16.08-4.59-10.61-2.75-20.58,5.03-29.2,4.78-5.3,11.03-7.85,18.79-8.59ZM62.54,5.67c-29.06,3.92-41.92,35.37-32.2,54.06,5.89-9.55,8.26-11.52,18.64-16.15,1-.45,2.16-2.12,2.08-3.14-.95-12.81,1.89-24.39,11.48-34.76Z"/><path class="cls-1" d="m118.64,112.86c3.27-1.79,5.36-3.18,7.64-4.05.91-.35,2.25.46,3.4.73-.38,1.14-.42,2.7-1.21,3.32-1.92,1.53-4.19,2.63-7.06,4.35,2.56,1.5,4.82,2.47,6.57,4,.97.85,1.12,2.65,1.64,4.02-1.35.05-2.84.48-4.01.06-2.12-.77-4.05-2.05-6.99-3.61,0,3.34.22,5.79-.11,8.17-.14,1-1.45,1.84-2.24,2.75-.8-.89-2.15-1.7-2.29-2.68-.33-2.42-.11-4.92-.11-8.49-3.1,1.78-5.22,3.33-7.59,4.23-1.18.45-2.81-.3-4.24-.51.58-1.18.86-2.74,1.79-3.47,2.03-1.6,4.4-2.78,7.15-4.44-2.84-1.75-5.23-2.95-7.26-4.59-.89-.72-1.03-2.34-1.52-3.56,1.32-.17,2.83-.83,3.92-.41,2.29.88,4.35,2.32,7.3,3.97.15-3.29.04-6.02.52-8.65.2-1.11,1.65-1.99,2.53-2.97.72.96,1.95,1.86,2.07,2.89.3,2.59.1,5.23.1,8.94Z"/><path class="cls-1" d="m60.06,140.68c-2.84-1.68-4.98-2.58-6.64-4.04-1.14-1.01-1.62-2.78-2.39-4.2,1.56-.03,3.26-.47,4.65,0,2.1.73,3.99,2.09,6.92,3.7,0-3.56-.24-6.17.11-8.7.16-1.12,1.5-2.08,2.31-3.11.81,1.01,2.18,1.94,2.33,3.04.35,2.56.11,5.2.11,8.63,2.59-1.32,4.37-2.54,6.34-3.12,1.43-.42,3.11,0,4.67.04-.85,1.37-1.47,3.01-2.62,4.05-1.42,1.29-3.29,2.08-5.61,3.47,2.3,1.41,4.29,2.29,5.82,3.67,1.13,1.03,1.66,2.72,2.45,4.11-1.55.04-3.22.46-4.62.03-1.99-.62-3.77-1.87-6.43-3.26,0,2.93.29,5.23-.11,7.4-.23,1.28-1.55,2.36-2.39,3.53-.79-1.23-2.01-2.37-2.25-3.7-.38-2.06-.1-4.25-.1-7.13-3.06,1.56-5.44,2.98-7.99,3.98-.97.38-2.31-.18-3.49-.31.41-1.26.45-3.01,1.32-3.68,2.02-1.58,4.44-2.64,7.6-4.41Z"/><path class="cls-1" d="m109.83,156.43c3.59-.19,6.13-.33,8.66-.46-1.5,2.22-3,4.45-4.72,7,.64.44,2.17,1.12,3.17,2.28.79.92.94,2.4,1.37,3.63-1.19.17-2.44.65-3.54.43-1.39-.29-2.65-1.15-4.43-1.99-.21,1.63-.17,2.93-.59,4.06-.51,1.36-1.42,2.57-2.15,3.84-.91-1.33-2.02-2.58-2.64-4.03-.4-.94-.08-2.18-.08-4.1-2.18,1.1-3.66,2.12-5.28,2.56-1.07.28-2.36-.29-3.55-.47.42-1.23.55-2.73,1.35-3.62,1.05-1.16,2.63-1.83,4.64-3.13-1.95-1.27-3.57-2.03-4.78-3.22-.79-.78-.98-2.18-1.44-3.3,1.29-.26,2.66-.92,3.84-.67,1.53.32,2.9,1.37,5.06,2.47.17-2.32.06-4.11.51-5.75.29-1.07,1.37-1.93,2.1-2.89.84,1.03,2.07,1.95,2.41,3.13.42,1.46.1,3.14.1,4.26Z"/></g></svg>