<?xml version="1.0" encoding="UTF-8"?><svg id="Lager_2" xmlns="http://www.w3.org/2000/svg" viewBox="0 0 184.68 145.49"><defs><style>.cls-1{stroke-width:0px;}</style></defs><g id="Lager_1-2"><path class="cls-1" d="m66.19,43.46c3.61-9.18,8.77-17.17,17.09-22.77,20.01-13.45,45.59-8.4,59.7,12.02,1.74,2.52,3.37,3.39,6.4,3.38,17.02-.04,28.96,15,25.66,31.72-.34,1.73.38,4.3,1.58,5.6,7.69,8.4,10.24,17.92,6.07,28.56-4.29,10.94-12.7,17.03-24.51,17.28-15.32.33-30.65.13-45.97-.05-1.61-.02-3.2-1.5-4.81-2.3,1.59-.82,3.16-2.32,4.76-2.34,14.82-.19,29.65.02,44.47-.17,16.22-.21,26.64-13.77,21.73-28.66-1.28-3.87-4.43-7.28-7.26-10.42-1.73-1.93-2.63-3.25-1.82-5.99,4.92-16.72-6.23-29.94-23.43-27.75-3.72.47-4.44-2.02-5.79-4.22-8.57-13.98-21.04-20.65-37.34-18.69-15.42,1.85-25.97,10.57-31.01,25.3-1.54,4.5-3.04,5.89-8.06,4.42-13.04-3.83-25.71,3.39-29.66,16.67-1.25,4.2-2.93,5.82-7.48,5.81-11.86-.03-20.96,8.92-21.58,20.5-.62,11.68,7.34,21.46,19.26,22.67,7.26.74,14.64.19,21.95.51,1.68.07,3.31,1.34,4.97,2.06-1.64.94-3.26,2.63-4.93,2.69-6.82.24-13.67.25-20.47-.15C11.12,118.26.57,107.62.02,93.59c-.55-13.99,9.27-25.57,23.51-27.74.8-.12,1.59-.27,2.79-.48-4.31-10.16-5.26-20.35-2.77-30.93C28.18,14.75,48.23-.78,68.41.03c1,.04,2.07-.01,2.96.34,1.01.4,1.86,1.21,2.79,1.83-.7,1.01-1.23,2.21-2.13,2.99-2.76,2.36-6.05,4.21-8.42,6.89-6.82,7.72-8.47,17.15-7.67,27.08.1,1.2,1.87,2.75,3.21,3.25,1.97.74,4.24.68,7.06,1.05Zm-36.61,15.9c3.5-3.8,6.6-7.95,10.47-11.18,5.93-4.95,9.94-10.69,10.96-18.26,1.19-8.91,4.59-16.8,10.89-23.86-24.56,2.1-41.81,30.02-32.32,53.3Z"/><path class="cls-1" d="m99.24,124.75c-.37,8.37-5.3,15.94-12.71,18.99-8.14,3.35-16.75,1.87-22.55-4.11-6.24-6.43-8.67-14.27-4.59-22.33,4.78-9.43,10.83-18.23,16.51-27.19,1.51-2.38,3.69-2.18,5.2.22,5.38,8.57,10.83,17.1,15.88,25.87,1.42,2.47,1.54,5.68,2.26,8.56Zm-20.75-29.27c-2.21,3.32-3.99,5.9-5.66,8.54-2.75,4.35-5.61,8.65-8.1,13.15-3.78,6.83-2.35,14.81,3.18,19.49,5.84,4.95,14.54,5.19,20.27.57,5.74-4.63,7.62-13.13,3.82-19.85-4.07-7.2-8.67-14.1-13.52-21.91Z"/><path class="cls-1" d="m130.96,83.79c-.47,6.85-2.99,10.85-8.15,12.93-5.12,2.07-9.81,1.24-13.81-2.6-4.14-3.97-5.65-8.95-3.14-14.08,2.76-5.65,6.35-10.92,9.83-16.18.51-.77,3.29-1.21,3.56-.81,4.7,6.92,10.62,13.25,11.7,20.74Zm-12.97-14.49c-2.77,4.4-5.32,7.9-7.29,11.7-2,3.86-1.05,7.55,2.41,10.22,3.36,2.6,6.94,2.21,10.07-.41,3.23-2.71,3.67-6.32,1.78-9.94-1.91-3.67-4.25-7.11-6.97-11.58Z"/></g></svg>