<?xml version="1.0" encoding="UTF-8"?><svg id="Lager_2" xmlns="http://www.w3.org/2000/svg" viewBox="0 0 206.76 199.54"><defs><style>.cls-1{stroke-width:0px;}</style></defs><g id="Lager_1-2"><path class="cls-1" d="m98.77,40.32c5.81,7.92,10.99,15.1,16.37,22.14.56.73,2.35,1.03,3.41.8,20.18-4.25,35.95,2.1,47.51,19.23.8,1.18,2.92,2.04,4.45,2.07,18.74.41,29.94,14.17,26.72,32.75-.26,1.49.81,3.64,1.93,4.87,14.11,15.58,7.74,39.3-12.17,44.7-2.69.73-5.59.94-8.39.95-42.98.04-85.97,0-128.95-.02-10.74,0-19-4.51-24.15-14-6.75-12.46-3.2-26.63,8.48-34.81,1.48-1.04,3.05-1.96,4.96-3.18-8.5-8.76-13.28-19.11-14.34-31.51-6.72,0-13.19.19-19.63-.13-1.69-.08-3.31-1.73-4.96-2.66,1.61-.72,3.19-1.99,4.83-2.06,6.45-.24,12.92-.1,19.7-.1,1.44-15.96,8.52-28.24,21.57-37.34-3.47-5.97-6.9-11.63-10.01-17.45-.72-1.34-.33-3.28-.45-4.94,1.55.83,3.72,1.27,4.55,2.56,3.57,5.56,6.75,11.38,10.22,17.36,13.6-6.37,26.98-6.64,40.56-1.25,1,.4,3.39-.81,4.12-1.93,2.91-4.45,5.27-9.27,8.17-13.73.91-1.4,2.91-2.11,4.4-3.13-.11,1.89.36,4.08-.43,5.63-2.84,5.62-6.11,11.03-8.45,15.17Zm15.55,122.56v.07c21.81,0,43.63.06,65.44-.03,9.44-.04,17.77-5.71,20.75-13.76,3.08-8.33.93-18.87-5.88-24.19-3.46-2.7-3.71-4.89-2.59-8.76,4.14-14.4-7.52-28.28-22.27-26.37-4.16.54-5.7-.85-7.68-4.11-8.01-13.23-19.92-19.91-35.47-18.65-16.43,1.33-27.41,10.38-32.8,25.8-1.56,4.46-3.14,5.64-7.8,4.2-12.28-3.79-25.46,2.75-29.16,15.04-1.76,5.87-4.57,7.24-10.12,7.42-11.51.38-20.82,11.92-19.53,23.37,1.35,12.05,9.73,19.81,22.17,19.91,21.65.17,43.29.05,64.94.05Zm-3.48-96.89c-.45-1.27-.73-2.39-1.23-3.39-9.04-18.1-30.61-27.33-49.87-21.35-20.15,6.25-32.76,25.71-29.83,46.27,1.41,9.89,5.82,18.36,13.16,25.15,3.18,2.95,6.72,2.54,8.26-.57,8.62-17.39,15.67-21.53,34.48-20.45,1.17.07,3.17-.66,3.48-1.51,4.06-10.77,11.41-18.57,21.53-24.15Z"/><path class="cls-1" d="m115.99,58.38c-.53-.46-1.89-1.19-1.8-1.65.21-1.14.83-2.58,1.74-3.14,4.67-2.87,9.5-5.48,14.25-8.2,3.03-1.74,5.95-3.67,9.08-5.19.84-.41,2.27.39,3.43.64-.25,1.04-.15,2.65-.79,3.03-8.12,4.85-16.35,9.53-24.56,14.23-.27.16-.64.14-1.34.27Z"/><path class="cls-1" d="m30.67,56.87c-2.13.44-3.9,1.43-4.84.91-7.86-4.27-15.62-8.75-23.28-13.38-.9-.55-1.01-2.42-1.48-3.68,1.19-.2,2.69-.97,3.51-.52,7.99,4.4,15.87,8.99,23.74,13.6.64.38.99,1.26,2.34,3.06Z"/><path class="cls-1" d="m74.4,16.31c0,4.15.19,8.32-.11,12.45-.1,1.3-1.52,2.5-2.34,3.74-.82-1.18-2.33-2.34-2.36-3.55-.23-8.3-.27-16.61-.06-24.91.04-1.37,1.64-2.7,2.52-4.05.77,1.45,2.08,2.86,2.19,4.36.31,3.96.11,7.97.11,11.95h.04Z"/><path class="cls-1" d="m29.97,107.76c-.99.93-1.69,1.88-2.63,2.43-7.17,4.21-14.33,8.43-21.65,12.38-1.19.64-3.11-.05-4.69-.12.72-1.3,1.11-3.15,2.21-3.82,7.1-4.32,14.34-8.43,21.61-12.47,1.03-.57,2.49-.61,3.7-.48.49.05.87,1.21,1.44,2.08Z"/><path class="cls-1" d="m182.09,176.98c-1.22,2.95-2.32,5.71-3.5,8.43-1.59,3.65-3.12,7.34-4.95,10.87-.45.86-1.95,1.18-2.97,1.75-.52-1.05-1.74-2.39-1.44-3.11,2.63-6.44,5.46-12.8,8.43-19.08.33-.71,1.94-1.17,2.89-1.08.57.05,1.01,1.41,1.54,2.23Z"/><path class="cls-1" d="m45.17,199.35c-.46-2.35-1.31-3.93-.89-5,2.38-6.03,4.96-11.98,7.74-17.83.45-.95,2.26-1.25,3.44-1.85.31,1.29,1.23,2.83.82,3.84-2.4,6.01-5.06,11.93-7.77,17.81-.41.9-1.56,1.45-3.34,3.04Z"/><path class="cls-1" d="m87.4,199c-.65-1.73-1.88-3.32-1.5-4.28,2.48-6.35,5.22-12.6,8.11-18.78.35-.75,2.16-1.18,3.22-1.07.49.05,1.38,2.01,1.09,2.7-2.63,6.47-5.45,12.87-8.3,19.25-.3.66-1.22,1.04-2.62,2.17Z"/><path class="cls-1" d="m128.5,198.4c-.3-1.33-1.2-2.9-.79-3.95,2.36-5.99,4.94-11.91,7.71-17.73.46-.97,2.21-1.33,3.37-1.98.3,1.29,1.2,2.82.8,3.83-2.37,5.99-5.06,11.85-7.62,17.77-.45,1.05-.82,2.14-1.23,3.21-.75-.38-1.49-.76-2.24-1.14Z"/></g></svg>