<?xml version="1.0" encoding="UTF-8"?><svg id="Lager_2" xmlns="http://www.w3.org/2000/svg" viewBox="0 0 184.6 147.38"><defs><style>.cls-1{stroke-width:0px;}</style></defs><g id="Lager_1-2"><path class="cls-1" d="m24.6,62.09c-4.77-15.02-3.63-28.92,4.88-41.67C38.68,6.63,51.93.05,68.41,0c1.75,0,3.5,1.2,5.26,1.85-1.17,1.4-2.08,3.23-3.56,4.14-11.2,6.92-14.53,17.67-14.62,29.91,0,1.11,1.83,2.82,3.13,3.23,2.33.72,4.9.66,7.82.98,3.2-9.39,8.7-17.26,17.17-22.92,19.25-12.87,45.14-8.1,58.36,10.96,2.09,3.01,3.95,4.68,8.2,4.71,16.02.13,27.53,14.18,24.91,29.97-.6,3.63.02,5.97,2.59,8.74,6.76,7.28,8.48,16.17,5.57,25.59-3.04,9.83-9.87,16.01-20,18.17-2.9.62-5.95.78-8.94.78-41.65.05-83.3.06-124.94.02-18.01-.02-30.02-11.81-29.32-28.62.5-12.01,8.88-21.38,22.22-24.83.62-.16,1.23-.31,2.34-.59Zm67.94,49.15s0-.05,0-.07c16.48,0,32.97.02,49.45,0,5.83,0,11.68.19,17.47-.27,8.9-.69,15.33-5.38,18.53-13.73,3.35-8.72,1.89-17-5.01-23.36-3.62-3.34-4.09-6.14-2.91-10.68,3.62-13.94-9.08-27.49-23.22-25.08-3.09.53-4.71-.21-6.34-3.07-11.52-20.17-34.46-25.98-54.04-13.77-7.82,4.88-12.62,12.14-15.37,20.83-.86,2.71-1.63,4.66-5.52,3.59-15.84-4.36-27.52,2.24-32.22,18.01-.82,2.75-2.12,3.73-4.87,3.82-2.96.09-6.07.21-8.83,1.15-10.35,3.53-16.31,13.79-14.54,24.42,1.8,10.81,11.38,18.22,23.48,18.22,21.31-.01,42.63,0,63.94,0ZM61.74,5.8c-25.62,2.18-41.68,31.82-32.23,52.71,3.46-8.03,8.67-14.17,16.77-17.02,3.47-1.22,4.88-2.85,4.25-6.45-.22-1.28.06-2.65.15-3.97.69-9.55,4.34-17.88,11.06-25.28Z"/><path class="cls-1" d="m134.21,147.38c-.42-1.76-1.27-3.18-.9-4.11,2.21-5.55,4.61-11.03,7.2-16.41.38-.79,2.12-.94,3.23-1.38.37,1,1.31,2.23,1.02,2.96-2.29,5.69-4.77,11.31-7.35,16.88-.33.71-1.53,1.02-3.2,2.05Z"/><path class="cls-1" d="m60.59,147.29c-.53-1.63-1.64-3.17-1.26-4.15,2.14-5.54,4.55-10.98,7.08-16.35.35-.74,1.98-1.44,2.77-1.23.69.19,1.68,1.93,1.43,2.55-2.38,5.96-4.96,11.84-7.58,17.7-.21.47-1.05.66-2.44,1.48Z"/><path class="cls-1" d="m108.82,126.37c-1.67,3.75-2.76,6.16-3.81,8.59-1.45,3.35-2.72,6.8-4.4,10.03-.44.84-2.11,1.04-3.22,1.53-.4-1.13-1.41-2.49-1.09-3.34,2.11-5.41,4.42-10.75,6.91-16,.42-.89,2.01-1.5,3.15-1.69.83-.14,1.82.63,2.46.88Z"/><path class="cls-1" d="m23.79,147.37c-.68-1.48-1.93-2.88-1.62-3.7,2.18-5.74,4.59-11.4,7.19-16.96.35-.74,2.22-1.16,3.28-1.01.5.07,1.34,2.07,1.04,2.8-2.29,5.7-4.79,11.33-7.32,16.93-.28.63-1.23.95-2.57,1.94Z"/></g></svg>