<?xml version="1.0" encoding="UTF-8"?><svg id="Lager_2" xmlns="http://www.w3.org/2000/svg" viewBox="0 0 226.41 131.92"><defs><style>.cls-1{stroke-width:0px;}</style></defs><g id="Lager_1-2"><path class="cls-1" d="m108.19,29.95C117.59,2.56,147.32-7.29,169.53,5.61c5.95,3.46,10.61,9.32,15.39,14.52,1.73,1.88,2.95,2.93,5.61,2.94,17.86.03,29.08,13.74,26.24,31.48-.3,1.86.63,4.52,1.93,5.95,7.73,8.52,9.74,18.3,5.61,28.73-4.14,10.45-12.4,16.54-23.84,16.72-20.16.32-40.32.15-60.48.02-1.43,0-2.86-1.39-4.28-2.13,1.45-.9,2.89-2.58,4.34-2.59,19.49-.16,38.99,0,58.48-.11,12.23-.07,20.98-7.39,22.59-18.98,1.08-7.78-1.42-14.54-7.64-19.51-2.57-2.06-3.11-3.87-2.2-7.18,4.38-15.81-6.05-28.5-22.44-27.38-3.52.24-5.36-.69-7.14-3.75-8.03-13.85-20.32-20.6-36.2-19.1-15.39,1.45-26.12,10-31.88,24.46-2.65,6.67-2.57,6.7-9.26,5.08-12.31-3-25.71,4.76-28.72,17.06-.96,3.93-2.51,5.68-6.63,5.61-2.78-.05-5.56.99-8.36,1.19-1.34.1-2.74-.62-4.11-.97.92-1.18,1.62-2.97,2.81-3.41,2.62-.96,5.53-1.08,8.23-1.88,1.21-.36,2.69-1.28,3.2-2.35,8.22-17.12,17.17-22.19,35.62-19.97.48.06.98-.05,1.8-.1Z"/><path class="cls-1" d="m82.55,69.89c-13.15,0-26.3.22-39.44-.06-13.94-.29-22.3-12.48-17.2-24.71,2.58-6.2,7.46-9.7,14.02-10.57,1.38-.18,2.96,1.16,4.44,1.8-1.22.98-2.31,2.53-3.67,2.83-5.97,1.34-9.88,4.69-11.06,10.71-1.06,5.42,1.18,10.58,6.13,13.06,2.69,1.35,6.03,1.92,9.08,1.94,24.8.15,49.6.09,74.39.09,1,0,2.12-.29,2.97.07,1.46.62,2.75,1.63,4.11,2.48-1.44.78-2.86,2.22-4.31,2.24-13.15.18-26.29.1-39.44.1v.02Z"/><path class="cls-1" d="m88.05,101.15c11.17,0,22.33-.1,33.5.11,1.55.03,3.06,1.57,4.59,2.41-1.59.81-3.17,2.31-4.77,2.32-21.5.16-43,.1-64.5.11-7.76,0-12.47,3.27-13.3,9.2-.83,5.88,2.45,9.8,9.86,12.19,1.13.36,1.93,1.77,2.88,2.69-1.52.62-3.11,1.89-4.55,1.74-7.93-.83-13.6-7.97-13.16-16.13.44-8.16,6.91-14.46,15.45-14.59,11.33-.17,22.66-.04,34-.04Z"/><path class="cls-1" d="m51.44,77.12c14.98,0,29.97-.09,44.95.11,1.86.02,3.7,1.59,5.55,2.44-1.92.79-3.84,2.27-5.77,2.28-30.13.15-60.26.1-90.39.1-1.16,0-2.44.23-3.46-.17-.92-.36-1.56-1.43-2.32-2.19.84-.83,1.61-2.27,2.52-2.37,3.13-.32,6.31-.2,9.47-.2,13.15-.01,26.3,0,39.45,0Z"/><path class="cls-1" d="m99.51,94.35c-7.3,0-14.61.13-21.9-.11-1.44-.05-2.83-1.48-4.25-2.27,1.37-.88,2.73-2.49,4.11-2.51,14.93-.19,29.87-.19,44.8,0,1.33.02,2.63,1.68,3.95,2.58-1.44.78-2.85,2.18-4.31,2.22-7.46.23-14.93.11-22.4.11Z"/><path class="cls-1" d="m118.84,83.27c-2.69-1.41-6.6-2.64-6.52-3.56.34-4.28,4.22-2.52,6.59-2.44,2.43.08,4.82,1.38,7.23,2.15-2.31,1.22-4.61,2.44-7.29,3.85Z"/><path class="cls-1" d="m63.37,89.4c-.34-.02,1.04-.32,1.91.22.93.58,1.38,1.94,2.04,2.96-2.44.57-4.86,1.46-7.31,1.55-1.19.04-2.44-1.42-3.67-2.2.85-.84,1.58-1.93,2.6-2.45.79-.4,1.94-.08,4.43-.08Z"/></g></svg>