<?xml version="1.0" encoding="UTF-8"?><svg id="Lager_2" xmlns="http://www.w3.org/2000/svg" viewBox="0 0 213.4 116.32"><defs><style>.cls-1{stroke-width:0px;}</style></defs><g id="Lager_1-2"><path class="cls-1" d="m24.63,62.18c-3.66-11.84-3.72-23.01.78-34.15C32.4,10.74,51.23-1.29,69.8.11c1.28.1,2.49,1.11,3.74,1.69-.81,1.25-1.34,3-2.49,3.67-12.72,7.45-15.77,19.29-15.6,33.16,3.18.5,6.09,1.34,8.97,1.23,1.18-.05,2.71-1.95,3.34-3.34,7.75-17.23,22.75-27.06,41.55-26.36,14.45.54,25.72,7.36,33.69,19.34,1.69,2.54,3.28,3.5,6.36,3.47,13.82-.11,25.62,10.43,25.99,23.11.05,1.59-1.3,3.23-2,4.84-.92-1.5-2.43-2.91-2.68-4.51-1.86-11.91-10.86-19.36-23.19-18.43-3.67.28-5.57-.64-7.49-3.89-8.35-14.13-21.14-20.78-37.31-18.81-15.74,1.91-26.4,11.13-31.28,26.4-1.2,3.76-2.47,4.95-6.69,3.58-13-4.24-26.77,2.88-30.46,16.01-1.37,4.89-3.62,6.1-8.21,6.28-9.55.38-16.56,5.16-19.73,14.24-3.13,8.95-1.16,17.12,5.93,23.69,4.34,4.02,9.56,5.67,15.51,5.66,41.65-.07,83.3-.06,124.95.05,2.47,0,6.89-1.72,6.9,2.37,0,4.07-4.41,2.42-6.91,2.43-41.82.09-83.64.04-125.45.03-8.51,0-15.63-3.12-21-9.71-12.57-15.42-5.29-37.78,13.89-42.98,1.26-.34,2.53-.66,4.48-1.17ZM61.87,5.67c-26.1,2.87-41.64,32.01-32.47,52.48,1.61-2.54,2.95-5.23,4.82-7.47,2-2.4,4.15-5.47,6.85-6.35,7.82-2.53,10.01-7.43,10.05-15.31.04-8.82,4.64-16.39,10.75-23.35Z"/><path class="cls-1" d="m161.88,71.63c-12.16,0-24.32,0-36.48,0-1.33,0-2.77.21-3.96-.21-1.07-.38-1.88-1.52-2.8-2.32.92-.77,1.77-2.05,2.78-2.19,2.45-.36,4.97-.22,7.47-.22,23.48-.03,46.97-.05,70.45-.07.17,0,.35-.05.5,0,2.09.81,4.16,1.64,6.25,2.47-2.08.85-4.14,2.4-6.23,2.44-12.65.23-25.32.11-37.97.11Z"/><path class="cls-1" d="m151.4,103.4c-9.82,0-19.63.11-29.44-.12-1.51-.03-2.99-1.61-4.49-2.47,1.47-.73,2.94-2.08,4.42-2.09,19.46-.18,38.93-.24,58.39-.1,1.48.01,2.95,1.71,4.43,2.62-1.46.75-2.9,2.12-4.37,2.15-9.65.19-19.3.1-28.95.1v-.09Z"/><path class="cls-1" d="m180.7,88.58c-9.16,0-18.31.12-27.46-.12-1.56-.04-3.07-1.6-4.61-2.45,1.57-.8,3.14-2.28,4.71-2.3,18.48-.17,36.95-.18,55.43-.01,1.55.01,3.09,1.57,4.63,2.41-1.58.81-3.14,2.29-4.74,2.32-9.32.22-18.64.11-27.96.11v.03Z"/><path class="cls-1" d="m133.21,83.51c1.42.13,2.96.05,4.33.48.7.22,1.69,1.54,1.53,2.06-.26.87-1.27,2.06-2.06,2.15-2.76.29-5.58.37-8.34.09-.84-.09-1.53-1.62-2.29-2.48.78-.66,1.47-1.64,2.36-1.89,1.39-.39,2.93-.29,4.46-.4Z"/><path class="cls-1" d="m197.56,104.76c-2.67-1.48-4.82-2.67-6.98-3.86,2.27-.78,4.55-2.18,6.81-2.16,2.4.02,4.78,1.4,7.18,2.18-2.15,1.18-4.31,2.35-7.01,3.83Z"/></g></svg>