<?xml version="1.0" encoding="UTF-8"?><svg id="Lager_2" xmlns="http://www.w3.org/2000/svg" viewBox="0 0 184.61 161.81"><defs><style>.cls-1{stroke-width:0px;}</style></defs><g id="Lager_1-2"><path class="cls-1" d="m55.42,101.02c9.33,0,18.67-.11,27.99.1,1.67.04,3.3,1.37,4.95,2.1-1.66.93-3.3,2.65-4.97,2.67-18.83.19-37.67.35-56.49.05C11.87,105.7.47,94.59.02,80.49c-.49-15.2,9.6-26.38,25.15-28.2,1.52-.18,3.56-1.7,4.16-3.11,6.29-14.89,17.07-21.48,33.12-19.59,3.06.36,4.25-.4,5.48-3.23C74.73,10.67,86.68,1.59,103.83.17c16.97-1.4,29.92,5.74,39.57,19.56,1.01,1.44,3.28,2.75,5.02,2.81,18.6.63,29.64,14.13,26.5,32.46-.25,1.44.38,3.54,1.37,4.62,8.15,8.82,10.68,18.88,5.96,29.95-4.62,10.84-13.44,16.14-25.23,16.4-3.5.08-7.03.32-10.48-.06-1.57-.17-2.98-1.7-4.47-2.62,1.43-.75,2.81-2.03,4.3-2.16,3.97-.34,7.99-.07,11.99-.25,9.67-.43,16.27-5.37,19.81-14.25,3.32-8.35,1.17-17.53-5.95-23.6-3.24-2.77-3.49-5.12-2.38-9.01,4.14-14.48-8.15-28.35-23.09-26.15-3.3.49-4.75-.47-6.29-3.15-8.05-14.06-20.36-21.03-36.44-19.65-16.56,1.43-27.57,10.84-32.79,26.58-1.24,3.73-2.57,4.58-6.38,3.53-14.79-4.08-27.84,3.38-31.46,18.13-1.06,4.3-3.71,3.93-6.7,4-15.33.4-25.18,14.13-20.66,28.79,2.71,8.79,11.06,14.71,21.39,14.86,9.33.14,18.66.03,28,.03v.02Z"/><path class="cls-1" d="m113.55,99.31c0-3.62-.26-6.24.12-8.76.17-1.08,1.68-1.96,2.59-2.93.75.95,2.01,1.83,2.14,2.86.31,2.56.1,5.19.1,8.84,2.88-1.53,4.76-2.87,6.85-3.52,1.28-.4,2.89.28,4.34.47-.61,1.18-.94,2.7-1.88,3.47-1.76,1.43-3.88,2.43-6.55,4.03,2.52,1.53,4.71,2.58,6.54,4.08.95.78,1.28,2.32,1.89,3.52-1.43.23-3.02.98-4.25.59-2.12-.67-4.01-2.04-6.91-3.62,0,3.24.27,5.69-.12,8.03-.19,1.1-1.66,1.98-2.55,2.95-.77-.93-2.06-1.79-2.19-2.81-.33-2.4-.1-4.87-.1-8.14-2.54,1.34-4.16,2.56-5.99,3.07-1.76.49-3.72.27-5.6.36,1.13-1.56,2.06-3.34,3.44-4.63,1.29-1.2,3.06-1.89,5.33-3.22-2.68-1.67-5.02-2.81-6.92-4.45-.99-.85-1.2-2.6-1.77-3.94,1.34-.09,2.85-.61,3.99-.18,2.26.85,4.33,2.22,7.48,3.92Z"/><path class="cls-1" d="m62.27,131.7c-3.05,1.66-5.41,3.16-7.94,4.2-.96.4-2.36-.26-3.55-.43.41-1.28.43-3.05,1.3-3.73,2.05-1.59,4.5-2.65,7.63-4.39-2.49-1.54-4.58-2.47-6.18-3.94-1.22-1.12-1.82-2.92-2.69-4.41,1.74.08,3.59-.16,5.2.34,1.96.62,3.72,1.87,6.36,3.26,0-3.51-.2-6.15.1-8.74.12-1.04,1.32-1.95,2.03-2.92.88.97,2.37,1.86,2.53,2.94.37,2.58.12,5.25.12,8.83,2.78-1.51,4.8-2.89,7.02-3.71,1.15-.42,2.65.13,4,.25-.55,1.34-.74,3.08-1.71,3.94-1.67,1.49-3.83,2.43-6.42,3.98,2.65,1.6,4.92,2.65,6.75,4.21.88.74.94,2.44,1.37,3.71-1.31.11-2.77.65-3.88.24-2.13-.79-4.05-2.12-7.09-3.79,0,3.04.29,5.29-.11,7.42-.25,1.32-1.56,2.44-2.39,3.64-.81-1.26-2.07-2.43-2.33-3.8-.4-2.04-.1-4.22-.1-7.09Z"/><path class="cls-1" d="m102,149.04c-1.82-1.15-3.28-1.73-4.24-2.77-.97-1.05-1.46-2.56-2.15-3.87,1.47-.14,3-.61,4.39-.33,1.51.31,2.88,1.31,4.7,2.2.11-2.24-.08-3.92.35-5.43.34-1.18,1.45-2.15,2.21-3.21.82,1.09,1.98,2.06,2.37,3.29.48,1.47.31,3.15.35,3.75h8.42c-1.54,2.25-3.07,4.5-4.39,6.42,1.25,1.81,2.77,4,4.3,6.2h-7.59c-1.07,1.88-2.39,4.2-3.7,6.51-1.01-2.36-2.03-4.73-3.25-7.58-.99.48-2.52,1.45-4.19,1.92-1.1.31-2.41-.12-3.62-.22.38-1.29.42-2.89,1.23-3.8,1.04-1.17,2.7-1.79,4.83-3.09Z"/></g></svg>