<?xml version="1.0" encoding="UTF-8"?><svg id="Lager_2" xmlns="http://www.w3.org/2000/svg" viewBox="0 0 170.97 192.47"><defs><style>.cls-1{stroke-width:0px;}</style></defs><g id="Lager_1-2"><path class="cls-1" d="m138.7,126.18c8.79,5.1,16.46,9.37,23.89,14.01,1.9,1.19,3.04,3.59,4.52,5.43-2.36-.44-5.02-.34-7.04-1.42-7.61-4.08-15.01-8.54-23.72-13.57,1.44,5.14,2.53,9.14,3.69,13.13,1.5,5.11,3.23,10.16,4.49,15.33.33,1.34-.76,3.02-1.19,4.54-1.17-1.14-2.95-2.08-3.4-3.46-3.19-9.8-6.31-19.64-9.03-29.59-1.35-4.92-4.71-6.85-9.05-6.93-13.96-.26-24.72,5.75-31.94,17.72-3.02,5.01-2.39,8.72,1.64,13.03,6.7,7.18,13.52,14.26,20.09,21.56,1.06,1.18,1.07,3.3,1.57,4.98-1.65-.53-3.79-.58-4.88-1.68-5.98-6.01-11.69-12.29-17.52-18.45-.4-.43-.98-.69-2.48-1.73,0,4.28,0,7.67,0,11.06-.02,5.66.13,11.34-.19,16.99-.1,1.81-1.48,3.55-2.27,5.33-.84-1.84-2.33-3.65-2.4-5.52-.27-7.99-.11-15.99-.11-23.98,0-1.09,0-2.19,0-4.91-5.65,5.96-10.27,10.82-14.89,15.69-1.95,2.05-3.72,4.32-5.89,6.1-1.02.84-2.79.77-4.21,1.1.27-1.46.05-3.35.89-4.3,5.31-5.96,10.85-11.72,16.31-17.54,1.25-1.34,2.52-2.66,3.74-4.02,4.98-5.54,5.44-9.58,1.26-15.53-7.16-10.19-17.03-15.67-29.56-15.99-6.19-.15-8.99,2.1-10.8,8.12-2.78,9.24-5.5,18.51-8.54,27.67-.54,1.62-2.51,2.76-3.81,4.12-.24-1.77-1.05-3.69-.62-5.28,2.19-8.02,4.72-15.95,7.09-23.92.22-.75.21-1.56.42-3.27-5.95,3.36-11.23,6.33-16.5,9.32-4.63,2.63-9.18,5.42-13.92,7.83-1.14.58-2.89-.03-4.36-.09.68-1.31,1.02-3.19,2.1-3.85,8.68-5.27,17.5-10.31,26.27-15.43,1.12-.65,2.2-1.38,4.24-2.66-9.08-2.13-17.21-4.03-25.34-5.93-1.13-.27-2.43-.28-3.36-.88-1.23-.8-2.17-2.05-3.23-3.1,1.36-.53,2.83-1.69,4.05-1.48,5.23.92,10.4,2.23,15.58,3.42,5.03,1.16,10.11,2.11,15.05,3.59,4.9,1.47,8.09-.71,10.6-4.32,7.3-10.52,7.25-27.22-.11-37.79-2.39-3.42-5.42-5.46-10.16-4.23-9.33,2.42-18.78,4.39-28.19,6.54-1.13.26-2.31.76-3.41.62-1.16-.14-2.25-.9-3.36-1.4.81-1.05,1.43-2.74,2.46-3.03,4.79-1.39,9.68-2.4,14.54-3.54,4.52-1.06,9.04-2.12,14.43-3.39-1.51-1.18-2.4-2.03-3.43-2.64-8.62-5.04-17.33-9.93-25.85-15.13-1.32-.8-1.85-2.89-2.74-4.39,1.77.13,3.84-.29,5.25.49,9.59,5.28,19.03,10.81,29.98,17.09-1.48-4.95-2.51-8.49-3.59-12.03-1.64-5.42-3.48-10.78-4.85-16.26-.35-1.41.73-3.19,1.16-4.79,1.18,1.14,2.98,2.08,3.43,3.46,3.14,9.65,6.25,19.32,8.86,29.13,1.37,5.13,4.68,7.07,9.31,7.46,12.13,1.03,26.74-7.29,32.23-18.25,2.2-4.39,2.26-8.36-1.63-12.24-6.48-6.46-12.57-13.3-18.82-19.98-.91-.97-2.11-1.83-2.61-2.99-.51-1.18-.32-2.66-.43-4,1.32.25,3.08.05,3.88.83,3.69,3.6,7.1,7.48,10.63,11.26,3.11,3.33,6.23,6.64,9.34,9.96.37-.23.73-.46,1.1-.69,0-10.42-.1-20.85.08-31.27.04-2.3-1.55-5.9,2.53-6.23.62-.05,2.2,3.95,2.26,6.11.23,9.49.05,18.99.05,28.49,0,.93.19,1.85.42,3.94,6-6.34,11.31-11.95,16.62-17.56,1.26-1.33,2.33-2.95,3.84-3.89,1.12-.7,2.79-.51,4.22-.72-.25,1.3-.06,3-.82,3.85-6.35,7.04-12.84,13.96-19.37,20.83-6.21,6.55-6.69,10.7-1.35,17.84,7.12,9.53,16.75,14.51,28.67,14.75,6.16.12,9.12-2.24,10.83-8.03,2.73-9.25,5.37-18.54,8.33-27.72.54-1.65,2.48-2.85,3.77-4.26.3,1.88,1.24,3.93.78,5.6-2.34,8.61-5.04,17.13-6.72,26.58,5.36-3.05,10.72-6.1,16.07-9.17,2.89-1.66,5.64-3.59,8.66-4.94,1.38-.61,3.25-.11,4.9-.11-.79,1.42-1.23,3.43-2.43,4.17-7.24,4.43-14.66,8.55-22.01,12.81-.96.56-1.82,1.28-3.59,2.54,9.51,2.26,18.13,4.31,26.75,6.34.65.15,1.49,0,1.94.37,1.15.96,2.12,2.13,3.17,3.21-1.41.52-2.95,1.7-4.21,1.45-7.02-1.36-13.97-3.06-20.94-4.66-3.25-.74-6.58-1.26-9.7-2.35-4.66-1.63-7.77.53-10.29,3.85-7.36,9.72-7.56,28.47-.26,38.26,2.51,3.36,5.66,5.54,10.69,4.14,9.28-2.59,18.73-4.61,28.18-6.52,2.02-.41,4.33.65,6.51,1.04-1.72,1.17-3.28,2.9-5.18,3.41-8.5,2.25-17.09,4.15-27.08,6.52Zm-55.68-32.02v-31.46c-7.3,8.85-15.93,13.36-27.03,15.87,9.65,5.57,18.04,10.41,27.03,15.59Zm.06,40.03v-31.19c-9.1,5.26-17.49,10.11-25.88,14.96,10.35,2.85,18.33,8.15,25.88,16.23Zm7.53-35.56c9.43,5.4,17.88,10.23,25.79,14.77v-29.55c-7.91,4.53-16.3,9.35-25.79,14.78Zm-9.84-.02c-9.54-5.5-17.86-10.29-27.44-15.82,3.97,11.14,3.74,20.82.02,31.67,9.66-5.58,18.05-10.43,27.42-15.85Zm33.54-19.28c.07-.4.14-.79.21-1.19-10.19-1.77-18.51-6.73-25.92-15.13v31.07c8.95-5.14,17.34-9.94,25.72-14.75Zm-.13,39.76c0-.42-.02-.85-.03-1.27-8.28-4.76-16.56-9.52-25.3-14.54v30.75c7.26-8.41,15.5-13.03,25.33-14.94Z"/></g></svg>