<?xml version="1.0" encoding="UTF-8"?><svg id="Lager_2" xmlns="http://www.w3.org/2000/svg" viewBox="0 0 185.23 151.96"><defs><style>.cls-1{stroke-width:0px;}</style></defs><g id="Lager_1-2"><path class="cls-1" d="m66.7,30.14c4.18-10.36,10.07-18.89,19.86-24.45,19.5-11.07,44.02-5.61,56.44,13.1,2.01,3.02,3.99,3.98,7.56,3.99,16.41.04,28.28,15.19,25.11,31.31-.36,1.84.39,4.53,1.63,5.94,7.6,8.68,10.18,18.43,5.78,29.16-4.38,10.66-12.82,16.35-24.45,16.7-8.15.25-16.33.28-24.48.05-1.49-.04-2.93-1.77-4.39-2.72,1.5-.69,2.98-1.92,4.5-1.97,7.99-.25,15.99-.12,23.98-.28,9.41-.19,17.59-5.82,20.55-13.97,3.25-8.93.99-18.13-6.46-24.39-2.72-2.28-3.35-4.2-2.21-7.65,4.74-14.35-6.83-28.72-21.82-27.12-3.63.39-5.83-.29-7.72-3.57-7.88-13.7-19.97-20.41-35.64-19.14-16.75,1.37-27.89,10.62-33.16,26.66-1.05,3.21-2.43,4.57-6.18,3.5-14.84-4.23-27.58,2.98-31.44,17.87-1.14,4.4-3.98,4.07-7.19,4.17C10.05,57.86,0,75.29,8.31,89.99c4.19,7.4,10.97,10.94,19.43,11.09,5.99.1,11.99-.11,17.98.12,1.3.05,2.55,1.36,3.82,2.09-1.14.9-2.26,2.55-3.42,2.57-7.31.16-14.7.55-21.94-.26C10.04,104,.18,92.47.39,78.73c.21-13.9,10.7-24.76,25.12-26.33,1.52-.17,3.68-1.61,4.19-2.97,5.75-15.32,19.41-22.86,37.01-19.3Z"/><path class="cls-1" d="m101.19,91.2c6.98,0,13.12-.04,19.26.01,5.34.05,6.08,1.1,3.95,5.85-4.02,8.96-8.04,17.92-12.31,26.76-.71,1.46-3.09,3.53-3.98,3.23-3.31-1.13-1.12-3.53-.34-5.29,3.18-7.15,6.52-14.22,9.77-21.33.53-1.15.91-2.38,1.62-4.27-6.93,0-13.21.09-19.5-.03-5.01-.09-5.77-1.17-3.86-5.69,4.6-10.88,9.26-21.73,14.14-32.49.64-1.41,2.69-2.17,4.09-3.23.08,1.78.76,3.81.14,5.31-3.85,9.39-7.99,18.67-12.01,27.99-.31.72-.47,1.5-.97,3.17Z"/><path class="cls-1" d="m74.32,102.18c-3.55,0-6.34.08-9.13-.02-3.27-.12-4.59-1.59-3.13-4.88,2.64-5.93,5.11-11.93,7.91-17.78.53-1.12,2.28-1.65,3.47-2.46.24,1.57,1.1,3.36.62,4.67-1.79,4.94-4.02,9.71-6.54,15.61,3.65,0,6.39.05,9.14-.01,3.68-.09,4.95,1.31,3.3,4.85-3.93,8.44-7.72,16.95-11.82,25.3-.6,1.22-2.61,1.74-3.96,2.58-.08-1.49-.68-3.2-.16-4.44,2.55-6.14,5.4-12.15,8.12-18.21.66-1.47,1.24-2.97,2.19-5.23Z"/><path class="cls-1" d="m177.62,126.55c.61,1.77,1.73,3.3,1.36,4.25-2.46,6.3-5.16,12.51-8.03,18.63-.37.79-2.15.92-3.27,1.35-.36-.99-1.27-2.21-.98-2.93,2.61-6.42,5.42-12.77,8.26-19.09.29-.65,1.2-1.02,2.67-2.2Z"/><path class="cls-1" d="m54.46,129.75c-1.03,2.38-1.94,4.52-2.87,6.65-1.86,4.26-3.62,8.57-5.69,12.73-.46.92-2.01,1.3-3.05,1.93-.49-1.11-1.68-2.5-1.36-3.3,2.57-6.48,5.35-12.88,8.28-19.2.3-.65,2.02-1.02,2.97-.87.67.11,1.16,1.33,1.72,2.05Z"/><path class="cls-1" d="m84.53,151.73c-.53-1.66-1.54-3.09-1.18-3.98,2.55-6.45,5.32-12.82,8.21-19.12.3-.65,2.09-1.2,2.81-.89.73.31,1.6,1.98,1.34,2.64-2.57,6.45-5.32,12.82-8.16,19.16-.33.74-1.49,1.12-3.02,2.2Z"/><path class="cls-1" d="m126.21,151.96c-.51-2.04-1.45-3.58-1.05-4.59,2.4-6.13,5.03-12.19,7.81-18.16.4-.86,2.05-1.14,3.13-1.7.38,1.12,1.39,2.48,1.06,3.32-2.48,6.29-5.18,12.49-7.93,18.66-.33.74-1.38,1.16-3.02,2.47Z"/><path class="cls-1" d="m12.66,129.81c-.85,2.01-1.62,3.83-2.4,5.65-1.9,4.43-3.68,8.91-5.79,13.23-.5,1.02-2.15,1.48-3.27,2.19-.41-1.25-1.5-2.77-1.12-3.72,2.38-6.02,5-11.95,7.77-17.81.43-.9,1.97-1.48,3.1-1.73.37-.08,1.08,1.35,1.7,2.19Z"/></g></svg>