<?xml version="1.0" encoding="UTF-8"?><svg id="Lager_2" xmlns="http://www.w3.org/2000/svg" viewBox="0 0 184.63 153.67"><defs><style>.cls-1{stroke-width:0px;}</style></defs><g id="Lager_1-2"><path class="cls-1" d="m146.15,106c-4.33,0-8.67.17-12.99-.1-1.35-.08-2.62-1.33-3.92-2.05,1.29-.94,2.56-2.65,3.88-2.7,7.65-.25,15.32-.08,22.98-.1,10.7-.02,18.47-4.98,22.03-14.02,3.45-8.73.74-17.99-6.91-25.31-1.31-1.25-2.34-4.22-1.78-5.78,4.97-13.85-5.52-30.18-22.86-28.01-3.11.39-4.74-.58-6.31-3.3-8.18-14.21-20.72-21.19-36.95-19.46-15.96,1.7-26.93,10.75-31.95,26.23-1.31,4.04-2.85,4.93-7.14,3.73-13.91-3.9-27.32,3.66-30.57,17.33-1.01,4.23-2.92,4.65-6.47,4.8-13.61.57-22.42,9.63-22.24,22.49.16,11.51,9.37,20.94,20.92,21.22,6.16.15,12.33-.14,18.49.15,1.59.07,3.1,1.59,4.65,2.45-1.56.8-3.09,2.21-4.67,2.28-6.15.26-12.33.23-18.48.06-13.38-.36-24.89-11.1-25.78-23.89-1.04-14.97,7.8-26.86,22.11-29.05,4.36-.67,6.71-2.07,8.46-6.48,4.85-12.27,18.14-19.19,31.28-16.83,3.22.58,4.56-.13,5.9-3.22C74.55,10.98,86.42,1.83,103.24.23c16.87-1.61,30.13,5.36,39.71,19.2,1.68,2.42,3.2,3.58,6.31,3.56,17.13-.09,28.81,14,25.66,30.97-.52,2.8-.14,4.43,1.84,6.52,7.99,8.42,9.99,18.44,5.53,29.07-4.56,10.87-13.35,16.21-25.15,16.43-3.66.07-7.33.01-10.99.01Z"/><path class="cls-1" d="m120.04,122.3c-7.01,0-13.13.1-19.25-.03-5.25-.11-5.95-1.23-3.91-6.01,4.49-10.55,9.06-21.06,13.6-31.59.2-.46.32-1.05.68-1.32,1.19-.89,2.47-1.66,3.71-2.48.24,1.45,1.07,3.12.61,4.3-2.3,5.87-4.94,11.61-7.44,17.4-1.96,4.53-3.89,9.08-6.29,14.69,5.06,0,9.26-.02,13.47,0,2.66.01,5.32,0,7.97.16,2.77.17,4.04,1.63,2.82,4.34-4.5,9.99-9.02,19.97-13.73,29.86-.48,1-2.26,1.37-3.44,2.04-.29-1.44-1.25-3.15-.78-4.26,3.25-7.64,6.8-15.14,10.24-22.7.53-1.16.94-2.38,1.74-4.41Z"/><path class="cls-1" d="m67.35,105.98c3.83,0,6.64.01,9.45,0,3.29-.02,4.25,1.64,2.98,4.48-3.93,8.79-7.91,17.56-12.07,26.25-.46.97-2.23,1.32-3.39,1.95-.28-1.41-1.19-3.08-.74-4.19,2.19-5.37,4.74-10.6,7.16-15.88,1.02-2.24,2.03-4.48,3.49-7.7-3.45,0-6.17,0-8.88,0-3.47-.01-5.07-1.24-3.43-4.93,2.63-5.92,5.01-11.95,7.78-17.8.52-1.1,2.36-1.58,3.59-2.35.26,1.46,1.11,3.13.67,4.33-1.88,5.1-4.15,10.06-6.6,15.84Z"/></g></svg>