<?xml version="1.0" encoding="UTF-8"?><svg id="Lager_2" xmlns="http://www.w3.org/2000/svg" viewBox="0 0 169.99 182.93"><defs><style>.cls-1{stroke-width:0px;}</style></defs><g id="Lager_1-2"><path class="cls-1" d="m51.53,102.45c-7.73,0-14.65,0-21.58,0-8.33,0-16.66.08-24.99-.07-1.66-.03-3.31-.94-4.96-1.44.68-1.6,1.02-3.48,2.09-4.75,12.14-14.37,24.39-28.65,36.63-42.94,14.5-16.94,29.02-33.87,43.53-50.81.43-.51.73-1.34,1.25-1.51,1.39-.46,2.87-.64,4.31-.93-.03,1.34.4,2.91-.15,3.99-6.11,12.01-12.37,23.95-18.6,35.91-6.15,11.81-12.31,23.6-18.43,35.42-.66,1.28-1.1,2.68-1.99,4.9h13.82c10.66,0,21.33-.07,31.99.07,1.83.02,3.65.95,5.48,1.46-.8,1.74-1.28,3.74-2.44,5.18-19.27,23.8-38.63,47.53-57.96,71.28-5.99,7.36-11.85,14.82-18,22.03-1.13,1.32-3.4,1.67-5.15,2.46.15-1.79-.18-3.8.53-5.34,10.42-22.49,20.98-44.92,31.48-67.38,1.03-2.21,1.88-4.49,3.15-7.54Zm-43.13-6.08c.24.4.49.8.73,1.2,2.31,0,4.62,0,6.93,0,12.33-.02,24.66-.08,36.99-.04,5.26.02,5.95,1.2,3.72,5.98-2.74,5.88-5.55,11.74-8.29,17.62-6.01,12.9-12,25.81-18,38.71.29.18.58.36.86.54,20.14-24.76,40.28-49.52,61.18-75.21-15.77,0-30.07-.02-44.37,0-6.69.01-7.51-1.31-4.43-7.23,9.01-17.26,18-34.52,26.97-51.8.24-.46.1-1.11.2-2.8-21.31,24.89-41.91,48.96-62.51,73.02Z"/><path class="cls-1" d="m136.72,130.36c-9.94,0-18.89.08-27.84-.07-1.81-.03-3.6-.95-5.41-1.47.84-1.7,1.38-3.67,2.57-5.07,16.89-19.92,33.83-39.79,50.91-59.55,1.13-1.3,3.42-1.61,5.17-2.37-.27,1.96-.03,4.18-.87,5.84-7.34,14.37-14.89,28.63-22.35,42.94-.43.83-.61,1.8-1.21,3.62,9.29,0,18.02-.06,26.74.05,1.85.02,3.69.71,5.54,1.09-.74,1.89-1.06,4.12-2.28,5.63-16.06,19.96-32.2,39.84-48.46,59.63-1.01,1.23-3.14,1.55-4.74,2.3.08-1.82-.37-3.88.33-5.42,6.45-14.06,13.11-28.04,19.69-42.04.62-1.32,1.16-2.68,2.2-5.11Zm-7.93,28.91l1,.6c10.79-13.26,21.58-26.52,33.21-40.81-9.62,0-17.86.01-26.1,0-6.55-.02-7.18-1.02-4.2-6.9,4.39-8.67,8.86-17.3,13.3-25.95-.29-.19-.58-.39-.87-.58-11.11,12.95-22.22,25.9-34.15,39.81,9.62,0,17.89-.05,26.15.02,6.48.05,7.05,1.15,4.27,6.96-4.26,8.92-8.4,17.9-12.59,26.86Z"/></g></svg>